<mxfile host="Electron" agent="Mozilla/5.0 (Windows NT 10.0; Win64; x64) AppleWebKit/537.36 (KHTML, like Gecko) draw.io/27.0.5 Chrome/134.0.6998.205 Electron/35.3.0 Safari/537.36" version="27.0.5">
  <diagram name="Page-1" id="U6aiQGpPIJIKLr2R-3Zn">
    <mxGraphModel dx="1892" dy="634" grid="1" gridSize="10" guides="1" tooltips="1" connect="1" arrows="1" fold="1" page="1" pageScale="1" pageWidth="850" pageHeight="1100" math="0" shadow="0">
      <root>
        <mxCell id="0" />
        <mxCell id="1" parent="0" />
        <mxCell id="hHACXnJQ5a6okUAkaryG-1" value="SalesOffices" style="rounded=1;whiteSpace=wrap;html=1;" parent="1" vertex="1">
          <mxGeometry x="160" y="100" width="100" height="40" as="geometry" />
        </mxCell>
        <mxCell id="hHACXnJQ5a6okUAkaryG-2" value="Office Number" style="ellipse;whiteSpace=wrap;html=1;" parent="1" vertex="1">
          <mxGeometry x="50" y="60" width="90" height="40" as="geometry" />
        </mxCell>
        <mxCell id="hHACXnJQ5a6okUAkaryG-3" value="Location" style="ellipse;whiteSpace=wrap;html=1;" parent="1" vertex="1">
          <mxGeometry x="50" y="130" width="90" height="40" as="geometry" />
        </mxCell>
        <mxCell id="hHACXnJQ5a6okUAkaryG-4" value="" style="endArrow=none;html=1;rounded=0;exitX=1;exitY=0.5;exitDx=0;exitDy=0;entryX=0;entryY=0.75;entryDx=0;entryDy=0;" parent="1" source="hHACXnJQ5a6okUAkaryG-3" target="hHACXnJQ5a6okUAkaryG-1" edge="1">
          <mxGeometry width="50" height="50" relative="1" as="geometry">
            <mxPoint x="420" y="320" as="sourcePoint" />
            <mxPoint x="470" y="270" as="targetPoint" />
          </mxGeometry>
        </mxCell>
        <mxCell id="hHACXnJQ5a6okUAkaryG-5" value="" style="endArrow=none;html=1;rounded=0;exitX=1;exitY=1;exitDx=0;exitDy=0;entryX=0;entryY=0.25;entryDx=0;entryDy=0;" parent="1" source="hHACXnJQ5a6okUAkaryG-2" target="hHACXnJQ5a6okUAkaryG-1" edge="1">
          <mxGeometry width="50" height="50" relative="1" as="geometry">
            <mxPoint x="420" y="320" as="sourcePoint" />
            <mxPoint x="470" y="270" as="targetPoint" />
          </mxGeometry>
        </mxCell>
        <mxCell id="hHACXnJQ5a6okUAkaryG-6" value="" style="endArrow=none;html=1;rounded=0;exitX=0;exitY=1;exitDx=0;exitDy=0;entryX=1;entryY=1;entryDx=0;entryDy=0;" parent="1" source="hHACXnJQ5a6okUAkaryG-2" target="hHACXnJQ5a6okUAkaryG-2" edge="1">
          <mxGeometry width="50" height="50" relative="1" as="geometry">
            <mxPoint x="420" y="320" as="sourcePoint" />
            <mxPoint x="470" y="270" as="targetPoint" />
          </mxGeometry>
        </mxCell>
        <mxCell id="hHACXnJQ5a6okUAkaryG-7" value="Employee" style="rounded=1;whiteSpace=wrap;html=1;" parent="1" vertex="1">
          <mxGeometry x="425" y="100" width="100" height="40" as="geometry" />
        </mxCell>
        <mxCell id="hHACXnJQ5a6okUAkaryG-8" value="Emp_Name" style="ellipse;whiteSpace=wrap;html=1;" parent="1" vertex="1">
          <mxGeometry x="540" y="130" width="90" height="40" as="geometry" />
        </mxCell>
        <mxCell id="hHACXnJQ5a6okUAkaryG-9" value="Emp_ID" style="ellipse;whiteSpace=wrap;html=1;" parent="1" vertex="1">
          <mxGeometry x="540" y="60" width="90" height="40" as="geometry" />
        </mxCell>
        <mxCell id="hHACXnJQ5a6okUAkaryG-10" value="" style="endArrow=none;html=1;rounded=0;exitX=0;exitY=1;exitDx=0;exitDy=0;entryX=1;entryY=1;entryDx=0;entryDy=0;" parent="1" source="hHACXnJQ5a6okUAkaryG-9" target="hHACXnJQ5a6okUAkaryG-9" edge="1">
          <mxGeometry width="50" height="50" relative="1" as="geometry">
            <mxPoint x="400" y="320" as="sourcePoint" />
            <mxPoint x="450" y="270" as="targetPoint" />
          </mxGeometry>
        </mxCell>
        <mxCell id="hHACXnJQ5a6okUAkaryG-11" value="" style="endArrow=none;html=1;rounded=0;exitX=1;exitY=0.75;exitDx=0;exitDy=0;entryX=0;entryY=0;entryDx=0;entryDy=0;" parent="1" source="hHACXnJQ5a6okUAkaryG-7" target="hHACXnJQ5a6okUAkaryG-8" edge="1">
          <mxGeometry width="50" height="50" relative="1" as="geometry">
            <mxPoint x="400" y="320" as="sourcePoint" />
            <mxPoint x="450" y="270" as="targetPoint" />
          </mxGeometry>
        </mxCell>
        <mxCell id="hHACXnJQ5a6okUAkaryG-12" value="" style="endArrow=none;html=1;rounded=0;exitX=1;exitY=0.25;exitDx=0;exitDy=0;entryX=0;entryY=1;entryDx=0;entryDy=0;" parent="1" source="hHACXnJQ5a6okUAkaryG-7" target="hHACXnJQ5a6okUAkaryG-9" edge="1">
          <mxGeometry width="50" height="50" relative="1" as="geometry">
            <mxPoint x="400" y="320" as="sourcePoint" />
            <mxPoint x="450" y="270" as="targetPoint" />
          </mxGeometry>
        </mxCell>
        <mxCell id="hHACXnJQ5a6okUAkaryG-13" value="Property" style="rounded=1;whiteSpace=wrap;html=1;" parent="1" vertex="1">
          <mxGeometry x="160" y="360" width="100" height="40" as="geometry" />
        </mxCell>
        <mxCell id="hHACXnJQ5a6okUAkaryG-14" value="State" style="ellipse;whiteSpace=wrap;html=1;" parent="1" vertex="1">
          <mxGeometry x="-5" y="460" width="90" height="40" as="geometry" />
        </mxCell>
        <mxCell id="hHACXnJQ5a6okUAkaryG-15" value="Zip_Code" style="ellipse;whiteSpace=wrap;html=1;" parent="1" vertex="1">
          <mxGeometry x="85" y="460" width="90" height="40" as="geometry" />
        </mxCell>
        <mxCell id="hHACXnJQ5a6okUAkaryG-16" value="City" style="ellipse;whiteSpace=wrap;html=1;" parent="1" vertex="1">
          <mxGeometry x="115" y="420" width="90" height="40" as="geometry" />
        </mxCell>
        <mxCell id="hHACXnJQ5a6okUAkaryG-17" value="Location" style="ellipse;whiteSpace=wrap;html=1;" parent="1" vertex="1">
          <mxGeometry x="40" y="380" width="90" height="40" as="geometry" />
        </mxCell>
        <mxCell id="hHACXnJQ5a6okUAkaryG-18" value="Pro_ID" style="ellipse;whiteSpace=wrap;html=1;" parent="1" vertex="1">
          <mxGeometry x="40" y="330" width="90" height="40" as="geometry" />
        </mxCell>
        <mxCell id="hHACXnJQ5a6okUAkaryG-19" value="" style="endArrow=none;html=1;rounded=0;exitX=0;exitY=1;exitDx=0;exitDy=0;entryX=1;entryY=1;entryDx=0;entryDy=0;" parent="1" source="hHACXnJQ5a6okUAkaryG-18" target="hHACXnJQ5a6okUAkaryG-18" edge="1">
          <mxGeometry width="50" height="50" relative="1" as="geometry">
            <mxPoint x="400" y="370" as="sourcePoint" />
            <mxPoint x="450" y="320" as="targetPoint" />
          </mxGeometry>
        </mxCell>
        <mxCell id="hHACXnJQ5a6okUAkaryG-20" value="Address" style="ellipse;whiteSpace=wrap;html=1;" parent="1" vertex="1">
          <mxGeometry x="-35" y="420" width="90" height="40" as="geometry" />
        </mxCell>
        <mxCell id="hHACXnJQ5a6okUAkaryG-21" value="" style="endArrow=none;html=1;rounded=0;exitX=0;exitY=0;exitDx=0;exitDy=0;entryX=0.649;entryY=1.07;entryDx=0;entryDy=0;entryPerimeter=0;" parent="1" source="hHACXnJQ5a6okUAkaryG-15" target="hHACXnJQ5a6okUAkaryG-17" edge="1">
          <mxGeometry width="50" height="50" relative="1" as="geometry">
            <mxPoint x="400" y="370" as="sourcePoint" />
            <mxPoint x="450" y="320" as="targetPoint" />
          </mxGeometry>
        </mxCell>
        <mxCell id="hHACXnJQ5a6okUAkaryG-22" value="" style="endArrow=none;html=1;rounded=0;exitX=1;exitY=0;exitDx=0;exitDy=0;entryX=0;entryY=1;entryDx=0;entryDy=0;" parent="1" source="hHACXnJQ5a6okUAkaryG-20" target="hHACXnJQ5a6okUAkaryG-17" edge="1">
          <mxGeometry width="50" height="50" relative="1" as="geometry">
            <mxPoint x="400" y="370" as="sourcePoint" />
            <mxPoint x="450" y="320" as="targetPoint" />
          </mxGeometry>
        </mxCell>
        <mxCell id="hHACXnJQ5a6okUAkaryG-23" value="" style="endArrow=none;html=1;rounded=0;exitX=1;exitY=1;exitDx=0;exitDy=0;entryX=0;entryY=0;entryDx=0;entryDy=0;" parent="1" source="hHACXnJQ5a6okUAkaryG-17" target="hHACXnJQ5a6okUAkaryG-16" edge="1">
          <mxGeometry width="50" height="50" relative="1" as="geometry">
            <mxPoint x="400" y="370" as="sourcePoint" />
            <mxPoint x="450" y="320" as="targetPoint" />
          </mxGeometry>
        </mxCell>
        <mxCell id="hHACXnJQ5a6okUAkaryG-24" value="" style="endArrow=none;html=1;rounded=0;exitX=1;exitY=0.5;exitDx=0;exitDy=0;entryX=0;entryY=0.75;entryDx=0;entryDy=0;" parent="1" source="hHACXnJQ5a6okUAkaryG-17" target="hHACXnJQ5a6okUAkaryG-13" edge="1">
          <mxGeometry width="50" height="50" relative="1" as="geometry">
            <mxPoint x="400" y="370" as="sourcePoint" />
            <mxPoint x="450" y="320" as="targetPoint" />
          </mxGeometry>
        </mxCell>
        <mxCell id="hHACXnJQ5a6okUAkaryG-25" value="" style="endArrow=none;html=1;rounded=0;exitX=1;exitY=1;exitDx=0;exitDy=0;entryX=0;entryY=0.25;entryDx=0;entryDy=0;" parent="1" source="hHACXnJQ5a6okUAkaryG-18" target="hHACXnJQ5a6okUAkaryG-13" edge="1">
          <mxGeometry width="50" height="50" relative="1" as="geometry">
            <mxPoint x="400" y="370" as="sourcePoint" />
            <mxPoint x="450" y="320" as="targetPoint" />
          </mxGeometry>
        </mxCell>
        <mxCell id="hHACXnJQ5a6okUAkaryG-26" value="" style="endArrow=none;html=1;rounded=0;exitX=1;exitY=0;exitDx=0;exitDy=0;entryX=0.418;entryY=1.03;entryDx=0;entryDy=0;entryPerimeter=0;" parent="1" source="hHACXnJQ5a6okUAkaryG-14" target="hHACXnJQ5a6okUAkaryG-17" edge="1">
          <mxGeometry width="50" height="50" relative="1" as="geometry">
            <mxPoint x="108" y="476" as="sourcePoint" />
            <mxPoint x="108" y="433" as="targetPoint" />
          </mxGeometry>
        </mxCell>
        <mxCell id="hHACXnJQ5a6okUAkaryG-27" value="Owner" style="rounded=1;whiteSpace=wrap;html=1;" parent="1" vertex="1">
          <mxGeometry x="425" y="360" width="100" height="40" as="geometry" />
        </mxCell>
        <mxCell id="hHACXnJQ5a6okUAkaryG-28" value="Owner_Name" style="ellipse;whiteSpace=wrap;html=1;" parent="1" vertex="1">
          <mxGeometry x="550" y="390" width="90" height="40" as="geometry" />
        </mxCell>
        <mxCell id="hHACXnJQ5a6okUAkaryG-29" value="Owner_ID" style="ellipse;whiteSpace=wrap;html=1;" parent="1" vertex="1">
          <mxGeometry x="550" y="320" width="90" height="40" as="geometry" />
        </mxCell>
        <mxCell id="hHACXnJQ5a6okUAkaryG-30" value="" style="endArrow=none;html=1;rounded=0;exitX=1;exitY=0.75;exitDx=0;exitDy=0;entryX=0;entryY=0;entryDx=0;entryDy=0;" parent="1" source="hHACXnJQ5a6okUAkaryG-27" target="hHACXnJQ5a6okUAkaryG-28" edge="1">
          <mxGeometry width="50" height="50" relative="1" as="geometry">
            <mxPoint x="400" y="320" as="sourcePoint" />
            <mxPoint x="450" y="270" as="targetPoint" />
          </mxGeometry>
        </mxCell>
        <mxCell id="hHACXnJQ5a6okUAkaryG-31" value="" style="endArrow=none;html=1;rounded=0;exitX=1;exitY=0.25;exitDx=0;exitDy=0;entryX=0;entryY=1;entryDx=0;entryDy=0;" parent="1" source="hHACXnJQ5a6okUAkaryG-27" target="hHACXnJQ5a6okUAkaryG-29" edge="1">
          <mxGeometry width="50" height="50" relative="1" as="geometry">
            <mxPoint x="400" y="320" as="sourcePoint" />
            <mxPoint x="450" y="270" as="targetPoint" />
          </mxGeometry>
        </mxCell>
        <mxCell id="hHACXnJQ5a6okUAkaryG-32" value="" style="endArrow=none;html=1;rounded=0;exitX=0;exitY=1;exitDx=0;exitDy=0;entryX=1;entryY=1;entryDx=0;entryDy=0;" parent="1" source="hHACXnJQ5a6okUAkaryG-29" target="hHACXnJQ5a6okUAkaryG-29" edge="1">
          <mxGeometry width="50" height="50" relative="1" as="geometry">
            <mxPoint x="400" y="320" as="sourcePoint" />
            <mxPoint x="450" y="270" as="targetPoint" />
          </mxGeometry>
        </mxCell>
        <mxCell id="hHACXnJQ5a6okUAkaryG-33" value="Have" style="rhombus;whiteSpace=wrap;html=1;" parent="1" vertex="1">
          <mxGeometry x="310" y="95" width="50" height="50" as="geometry" />
        </mxCell>
        <mxCell id="hHACXnJQ5a6okUAkaryG-34" value="" style="endArrow=none;html=1;rounded=0;exitX=1;exitY=0.5;exitDx=0;exitDy=0;entryX=0;entryY=0.5;entryDx=0;entryDy=0;shape=link;" parent="1" source="hHACXnJQ5a6okUAkaryG-33" target="hHACXnJQ5a6okUAkaryG-7" edge="1">
          <mxGeometry width="50" height="50" relative="1" as="geometry">
            <mxPoint x="400" y="320" as="sourcePoint" />
            <mxPoint x="450" y="270" as="targetPoint" />
          </mxGeometry>
        </mxCell>
        <mxCell id="hHACXnJQ5a6okUAkaryG-35" value="" style="endArrow=none;html=1;rounded=0;exitX=1;exitY=0.5;exitDx=0;exitDy=0;shape=link;" parent="1" source="hHACXnJQ5a6okUAkaryG-1" target="hHACXnJQ5a6okUAkaryG-33" edge="1">
          <mxGeometry width="50" height="50" relative="1" as="geometry">
            <mxPoint x="400" y="320" as="sourcePoint" />
            <mxPoint x="450" y="270" as="targetPoint" />
          </mxGeometry>
        </mxCell>
        <mxCell id="hHACXnJQ5a6okUAkaryG-36" value="1" style="text;html=1;align=center;verticalAlign=middle;whiteSpace=wrap;rounded=0;" parent="1" vertex="1">
          <mxGeometry x="250" y="90" width="60" height="30" as="geometry" />
        </mxCell>
        <mxCell id="hHACXnJQ5a6okUAkaryG-39" value="1" style="text;html=1;align=center;verticalAlign=middle;whiteSpace=wrap;rounded=0;" parent="1" vertex="1">
          <mxGeometry x="365" y="90" width="60" height="30" as="geometry" />
        </mxCell>
        <mxCell id="hHACXnJQ5a6okUAkaryG-40" value="Manage" style="rhombus;whiteSpace=wrap;html=1;" parent="1" vertex="1">
          <mxGeometry x="310" y="30" width="50" height="50" as="geometry" />
        </mxCell>
        <mxCell id="hHACXnJQ5a6okUAkaryG-41" value="" style="endArrow=none;html=1;rounded=0;exitX=0.25;exitY=0;exitDx=0;exitDy=0;entryX=1;entryY=0.5;entryDx=0;entryDy=0;" parent="1" source="hHACXnJQ5a6okUAkaryG-7" target="hHACXnJQ5a6okUAkaryG-40" edge="1">
          <mxGeometry width="50" height="50" relative="1" as="geometry">
            <mxPoint x="400" y="320" as="sourcePoint" />
            <mxPoint x="450" y="270" as="targetPoint" />
          </mxGeometry>
        </mxCell>
        <mxCell id="hHACXnJQ5a6okUAkaryG-42" value="" style="endArrow=none;html=1;rounded=0;exitX=0.75;exitY=0;exitDx=0;exitDy=0;entryX=0;entryY=0.5;entryDx=0;entryDy=0;shape=link;" parent="1" source="hHACXnJQ5a6okUAkaryG-1" target="hHACXnJQ5a6okUAkaryG-40" edge="1">
          <mxGeometry width="50" height="50" relative="1" as="geometry">
            <mxPoint x="400" y="320" as="sourcePoint" />
            <mxPoint x="450" y="270" as="targetPoint" />
          </mxGeometry>
        </mxCell>
        <mxCell id="hHACXnJQ5a6okUAkaryG-44" value="1" style="text;html=1;align=center;verticalAlign=middle;whiteSpace=wrap;rounded=0;rotation=-35;" parent="1" vertex="1">
          <mxGeometry x="230" y="60" width="70" height="20" as="geometry" />
        </mxCell>
        <mxCell id="hHACXnJQ5a6okUAkaryG-45" value="M" style="text;html=1;align=center;verticalAlign=middle;whiteSpace=wrap;rounded=0;rotation=25;" parent="1" vertex="1">
          <mxGeometry x="365" y="50" width="60" height="30" as="geometry" />
        </mxCell>
        <mxCell id="hHACXnJQ5a6okUAkaryG-46" value="Have" style="rhombus;whiteSpace=wrap;html=1;" parent="1" vertex="1">
          <mxGeometry x="185" y="230" width="50" height="50" as="geometry" />
        </mxCell>
        <mxCell id="hHACXnJQ5a6okUAkaryG-47" value="" style="endArrow=none;html=1;rounded=0;exitX=0.5;exitY=0;exitDx=0;exitDy=0;entryX=0.5;entryY=1;entryDx=0;entryDy=0;shape=link;" parent="1" source="hHACXnJQ5a6okUAkaryG-13" target="hHACXnJQ5a6okUAkaryG-46" edge="1">
          <mxGeometry width="50" height="50" relative="1" as="geometry">
            <mxPoint x="400" y="320" as="sourcePoint" />
            <mxPoint x="450" y="270" as="targetPoint" />
          </mxGeometry>
        </mxCell>
        <mxCell id="hHACXnJQ5a6okUAkaryG-48" value="" style="endArrow=none;html=1;rounded=0;exitX=0.5;exitY=0;exitDx=0;exitDy=0;entryX=0.5;entryY=1;entryDx=0;entryDy=0;" parent="1" source="hHACXnJQ5a6okUAkaryG-46" target="hHACXnJQ5a6okUAkaryG-1" edge="1">
          <mxGeometry width="50" height="50" relative="1" as="geometry">
            <mxPoint x="400" y="320" as="sourcePoint" />
            <mxPoint x="450" y="270" as="targetPoint" />
          </mxGeometry>
        </mxCell>
        <mxCell id="hHACXnJQ5a6okUAkaryG-49" value="M" style="text;html=1;align=center;verticalAlign=middle;whiteSpace=wrap;rounded=0;" parent="1" vertex="1">
          <mxGeometry x="170" y="310" width="60" height="30" as="geometry" />
        </mxCell>
        <mxCell id="hHACXnJQ5a6okUAkaryG-50" value="1" style="text;html=1;align=center;verticalAlign=middle;whiteSpace=wrap;rounded=0;" parent="1" vertex="1">
          <mxGeometry x="175" y="170" width="60" height="30" as="geometry" />
        </mxCell>
        <mxCell id="hHACXnJQ5a6okUAkaryG-51" value="Have" style="rhombus;whiteSpace=wrap;html=1;" parent="1" vertex="1">
          <mxGeometry x="312.5" y="350" width="45" height="50" as="geometry" />
        </mxCell>
        <mxCell id="hHACXnJQ5a6okUAkaryG-52" value="" style="endArrow=none;html=1;rounded=0;exitX=1;exitY=0.5;exitDx=0;exitDy=0;entryX=0;entryY=0.5;entryDx=0;entryDy=0;shape=link;" parent="1" source="hHACXnJQ5a6okUAkaryG-51" target="hHACXnJQ5a6okUAkaryG-27" edge="1">
          <mxGeometry width="50" height="50" relative="1" as="geometry">
            <mxPoint x="400" y="320" as="sourcePoint" />
            <mxPoint x="420" y="380" as="targetPoint" />
          </mxGeometry>
        </mxCell>
        <mxCell id="hHACXnJQ5a6okUAkaryG-53" value="" style="endArrow=none;html=1;rounded=0;exitX=1;exitY=0.5;exitDx=0;exitDy=0;entryX=0;entryY=0.5;entryDx=0;entryDy=0;" parent="1" source="hHACXnJQ5a6okUAkaryG-13" target="hHACXnJQ5a6okUAkaryG-51" edge="1">
          <mxGeometry width="50" height="50" relative="1" as="geometry">
            <mxPoint x="400" y="320" as="sourcePoint" />
            <mxPoint x="450" y="270" as="targetPoint" />
          </mxGeometry>
        </mxCell>
        <mxCell id="hHACXnJQ5a6okUAkaryG-54" value="M" style="text;html=1;align=center;verticalAlign=middle;whiteSpace=wrap;rounded=0;rotation=5;" parent="1" vertex="1">
          <mxGeometry x="357.5" y="350" width="60" height="30" as="geometry" />
        </mxCell>
        <mxCell id="hHACXnJQ5a6okUAkaryG-55" value="M" style="text;html=1;align=center;verticalAlign=middle;whiteSpace=wrap;rounded=0;rotation=-10;" parent="1" vertex="1">
          <mxGeometry x="260" y="350" width="60" height="30" as="geometry" />
        </mxCell>
        <mxCell id="hHACXnJQ5a6okUAkaryG-56" value="Percent&amp;nbsp;&lt;div&gt;Owned&lt;/div&gt;" style="ellipse;whiteSpace=wrap;html=1;" parent="1" vertex="1">
          <mxGeometry x="288.75" y="425" width="92.5" height="30" as="geometry" />
        </mxCell>
        <mxCell id="hHACXnJQ5a6okUAkaryG-57" value="" style="endArrow=none;html=1;rounded=0;exitX=0.5;exitY=0;exitDx=0;exitDy=0;entryX=0.5;entryY=1;entryDx=0;entryDy=0;" parent="1" source="hHACXnJQ5a6okUAkaryG-56" target="hHACXnJQ5a6okUAkaryG-51" edge="1">
          <mxGeometry width="50" height="50" relative="1" as="geometry">
            <mxPoint x="400" y="320" as="sourcePoint" />
            <mxPoint x="450" y="270" as="targetPoint" />
          </mxGeometry>
        </mxCell>
      </root>
    </mxGraphModel>
  </diagram>
</mxfile>
